<?xml version="1.0" encoding="UTF-8"?>
<svg width="1600px" height="1200px" viewBox="0 0 1600 1200" version="1.1" xmlns="http://www.w3.org/2000/svg" xmlns:xlink="http://www.w3.org/1999/xlink">
    <!-- Generator: Sketch 55.2 (78181) - https://sketchapp.com -->
    <title>Oreti</title>
    <desc>Created with Sketch.</desc>
    <defs>
        <rect id="path-1" x="0" y="0" width="1600" height="1200"></rect>
        <path d="M0,0.74124485 L367,0.74124485 L367,342.258853 C367,393.007274 325.922126,434.146998 275.25,434.146998 C224.577874,434.146998 183.5,475.286722 183.5,526.035144 L183.5,636.964954 C183.5,738.461797 101.344252,820.741245 0,820.741245 L0,0.74124485 Z" id="path-3"></path>
        <path d="M91.90843,0 C142.668054,0 183.81686,41.1115019 183.81686,91.8251095 L183.81686,535.646472 C183.81686,586.36008 142.668054,627.471582 91.90843,627.471582 C41.1488057,627.471582 0,586.36008 0,535.646472 L0,91.8251095 C0,41.1115019 41.1488057,0 91.90843,0 Z" id="path-5"></path>
        <ellipse id="path-7" cx="174.739056" cy="174.685548" rx="174.739056" ry="174.685548"></ellipse>
    </defs>
    <g id="Patterns" stroke="none" stroke-width="1" fill="none" fill-rule="evenodd">
        <g id="Oreti">
            <g>
                <mask id="mask-2" fill="white">
                    <use xlink:href="#path-1"></use>
                </mask>
                <use id="Background" fill="#F4FBF9" fill-opcacity="25%" xlink:href="#path-1" ></use>
                <path d="M155,-182 C205.810197,-182 247,-140.853877 247,-90.097561 L247,354.097561 C247,404.853877 205.810197,446 155,446 L63,446 L63,-90.097561 C63,-140.853877 104.189803,-182 155,-182 Z" id="Shape" fill="#F4FBF9" mask="url(#mask-2)"></path>
                <path d="M706,94 C756.810197,94 798,135.148396 798,185.907514 L798,1000.82081 C798,1051.57993 756.810197,1092.72832 706,1092.72832 C672.126535,1092.72832 641.459869,1113.15222 614,1154 L614,185.907514 C614,135.148396 655.189803,94 706,94 Z" id="Shape" fill="#75CBB3" mask="url(#mask-2)"></path>
                <path d="M706,-310 C756.810197,-310 798,-268.837865 798,-218.061798 L798,597.123596 C798,647.899663 756.810197,689.061798 706,689.061798 C672.126535,689.061798 641.459869,719.707865 614,781 L614,-218.061798 C614,-268.837865 655.189803,-310 706,-310 Z" id="Shape" fill="#F4FBF9" mask="url(#mask-2)"></path>
                <path d="M155,814 C205.810197,814 247,855.146123 247,905.902439 L247,1350.09756 C247,1400.85388 205.810197,1442 155,1442 L63,1442 L63,905.902439 C63,855.146123 104.189803,814 155,814 Z" id="Shape" fill="#DC2249" mask="url(#mask-2)"></path>
                <path d="M614,812.5 L247,812.5 L247,-50.7333094 L396.858333,-50.7333094 L396.858333,-56 L614,-56 L614,812.5 Z M614,815.5 L614,842.5 L247,842.5 L247,815.5 L614,815.5 Z M614,847.5 L614,872 L247,872 L247,847.5 L614,847.5 Z M614,880 L614,901.5 L247,901.5 L247,880 L614,880 Z M614,912.5 L614,930.5 L247,930.5 L247,912.5 L614,912.5 Z M614,943.5 L614,961 L247,961 L247,943.5 L614,943.5 Z M614,977 L614,988.967728 C614,989.14527 613.999499,989.322694 613.998498,989.5 L247.001502,989.5 C247.000501,989.322694 247,989.14527 247,988.967728 L247,977 L614,977 Z M611.929486,1008.5 C611.120004,1012.2572 610.081813,1015.92899 608.83026,1019.5 L252.169737,1019.5 C250.918187,1015.92899 249.879996,1012.2572 249.070514,1008.5 L611.929486,1008.5 Z M598.279195,1040.5 C596.280737,1043.46084 594.114899,1046.29873 591.79531,1049 L269.20469,1049 C266.885101,1046.29873 264.719263,1043.46084 262.720805,1040.5 L598.279195,1040.5 Z M559.720851,1073.00001 C548.279925,1078.14093 535.597824,1081 522.25,1081 L338.75,1081 C325.402176,1081 312.720075,1078.14093 301.279149,1073.00001 L559.72088,1073 Z" id="Shape" fill="#7A4865" mask="url(#mask-2)"></path>
                <g id="Shape" mask="url(#mask-2)">
                    <g transform="translate(247.000000, -57.000000)">
                        <mask id="mask-4" fill="white">
                            <use xlink:href="#path-3"></use>
                        </mask>
                        <use id="Shape" stroke="none" fill="#F6CB51" fill-rule="evenodd" xlink:href="#path-3"></use>
                    </g>
                </g>
                <path d="M1166,445 L1166,973.123596 C1166,1023.89966 1124.8102,1065.0618 1074,1065.0618 C1040.12654,1065.0618 1009.45987,1095.70787 982,1157 L982,366.611842 C988.578186,410.967407 1026.81472,445 1073,445 L1166,445 Z" id="Shape" fill="#3D2C42" mask="url(#mask-2)"></path>
                <g id="Shape" mask="url(#mask-2)">
                    <g transform="translate(982.000000, 629.000000)">
                        <mask id="mask-6" fill="white">
                            <use xlink:href="#path-5"></use>
                        </mask>
                        <use id="Shape" stroke="none" fill="#DC2249" fill-rule="evenodd" xlink:href="#path-5"></use>
                    </g>
                </g>
                <path d="M154,688.741379 C145.163444,688.741379 138,681.52776 138,672.62931 C138,663.73086 145.163444,656.517241 154,656.517241 C162.836556,656.517241 170,663.73086 170,672.62931 C170,681.52776 162.836556,688.741379 154,688.741379 Z M154,767 C145.163444,767 138,759.786381 138,750.887931 C138,741.989481 145.163444,734.775862 154,734.775862 C162.836556,734.775862 170,741.989481 170,750.887931 C170,759.786381 162.836556,767 154,767 Z M154,532.224138 C145.163444,532.224138 138,525.010519 138,516.112069 C138,507.213619 145.163444,500 154,500 C162.836556,500 170,507.213619 170,516.112069 C170,525.010519 162.836556,532.224138 154,532.224138 Z M154,610.482759 C145.163444,610.482759 138,603.26914 138,594.37069 C138,585.47224 145.163444,578.258621 154,578.258621 C162.836556,578.258621 170,585.47224 170,594.37069 C170,603.26914 162.836556,610.482759 154,610.482759 Z" id="Shape" fill="#75CBB3" mask="url(#mask-2)"></path>
                <g id="Shape" mask="url(#mask-2)">
                    <g transform="translate(624.000000, -44.000000)">
                        <mask id="mask-8" fill="white">
                            <use xlink:href="#path-7"></use>
                        </mask>
                        <use id="Shape" stroke="none" fill="#75CBB3" fill-rule="evenodd" xlink:href="#path-7"></use>
                        <path d="M542.610752,-12.258635 L542.610752,1031.63054 C542.610752,1082.42302 501.43531,1123.59847 450.642828,1123.59847 L266.70698,1123.59847 C215.914498,1123.59847 174.739056,1082.42302 174.739056,1031.63054 L174.739056,-12.258635 L542.610752,-12.258635 Z" id="Shape" stroke="none" fill="#FFFF" fill-rule="evenodd" mask="url(#mask-8)"></path>
                        <rect id="Shape" stroke="none" fill="#7A4865" fill-rule="evenodd" mask="url(#mask-8)" x="174.739056" y="173.153219" width="174.739056" height="297.271898"></rect>
                    </g>
                </g>
                
                <g id="Shape" mask="url(#mask-2)">
                    <g transform="translate(483.000000, 388.000000)">
                        <ellipse fill="#FFFF" cx="223.719223" cy="223.650717" rx="223.719223" ry="223.650717"></ellipse>
                        <ellipse fill="#75CBB3" cx="288.076808" cy="143.994297" rx="98.0687007" ry="98.0386706"></ellipse>
                    </g>
                </g>
                <circle id="Shape" fill="#7A4865" mask="url(#mask-2)" cx="430.5" cy="222.5" r="70.5"></circle>
                <circle id="Shape" fill="#7A4865" mask="url(#mask-2)" cx="1091.5" cy="328.5" r="70.5"></circle>
                <circle id="Shape" fill="#7A4865" mask="url(#mask-2)" cx="300" cy="126" r="26"></circle>
                <circle id="Shape" fill="#F2F2F2" mask="url(#mask-2)" cx="326.5" cy="366.5" r="34.5"></circle>
            </g>
        </g>
    </g>
</svg>